<svg width="34" height="30" viewBox="0 0 34 30" fill="none" xmlns="http://www.w3.org/2000/svg">
<path id="Vector" d="M5.18959 1.16666H28.8125C29.4133 1.16658 30.007 1.29643 30.5528 1.54728C31.0987 1.79814 31.5839 2.16407 31.9751 2.62C32.3663 3.07592 32.6543 3.61106 32.8194 4.18871C32.9844 4.76636 33.0226 5.37287 32.9313 5.96666L30.3167 22.95C30.0897 24.4259 29.3418 25.7718 28.2083 26.744C27.0749 27.7162 25.6308 28.2504 24.1375 28.25H9.86251C8.36959 28.2499 6.92601 27.7155 5.79299 26.7433C4.65997 25.7712 3.91235 24.4256 3.68543 22.95L1.07085 5.96666C0.979529 5.37287 1.0177 4.76636 1.18273 4.18871C1.34777 3.61106 1.63576 3.07592 2.02698 2.62C2.4182 2.16407 2.90338 1.79814 3.44927 1.54728C3.99515 1.29643 4.58883 1.16658 5.18959 1.16666Z" stroke="#F2F2F2" stroke-width="2" stroke-linecap="round" stroke-linejoin="round"/>
</svg>
