<svg width="24" height="24" viewBox="0 0 24 24" fill="none" xmlns="http://www.w3.org/2000/svg">
<g id="moon">
<path id="Vector" d="M20.7516 15.9516C18.9738 16.7557 16.9932 16.9991 15.0736 16.6491C13.1541 16.2992 11.3867 15.3727 10.007 13.993C8.62731 12.6133 7.70079 10.8459 7.35087 8.92637C7.00096 7.00681 7.24427 5.0262 8.0484 3.24841C6.63307 3.88803 5.39404 4.86145 4.4376 6.08516C3.48117 7.30888 2.83587 8.74636 2.55709 10.2743C2.27831 11.8022 2.37435 13.3749 2.83699 14.8576C3.29963 16.3402 4.11504 17.6885 5.21328 18.7867C6.31152 19.885 7.65979 20.7004 9.14243 21.163C10.6251 21.6257 12.1978 21.7217 13.7257 21.4429C15.2537 21.1641 16.6911 20.5188 17.9148 19.5624C19.1386 18.606 20.112 17.3669 20.7516 15.9516Z" fill="#F2F2F2"/>
</g>
</svg>
