<svg width="35" height="37" viewBox="0 0 35 37" fill="none" xmlns="http://www.w3.org/2000/svg">
<g id="Frame" clip-path="url(#clip0_52_90)">
<path id="Vector" d="M17.5 3.5C18.9422 3.5 20.3519 3.93987 21.551 4.76398C22.7502 5.58809 23.6847 6.75943 24.2366 8.12987C24.7885 9.50032 24.9329 11.0083 24.6516 12.4632C24.3702 13.918 23.6758 15.2544 22.656 16.3033C21.6362 17.3522 20.337 18.0665 18.9225 18.3559C17.5081 18.6453 16.042 18.4968 14.7096 17.9291C13.3772 17.3614 12.2384 16.4001 11.4372 15.1668C10.636 13.9334 10.2083 12.4834 10.2083 11L10.2156 10.6745C10.2972 8.74363 11.1003 6.91967 12.4574 5.58299C13.8146 4.24631 15.621 3.50011 17.5 3.5Z" fill="#F2F2F2"/>
<path id="Vector_2" d="M20.4167 21.5C22.3505 21.5 24.2052 22.2902 25.5726 23.6967C26.9401 25.1032 27.7083 27.0109 27.7083 29V30.5C27.7083 31.2956 27.401 32.0587 26.854 32.6213C26.3071 33.1839 25.5652 33.5 24.7917 33.5L17.5 35L10.2083 33.5C9.43477 33.5 8.69291 33.1839 8.14593 32.6213C7.59895 32.0587 7.29166 31.2956 7.29166 30.5V29C7.29166 27.0109 8.05988 25.1032 9.42734 23.6967C10.7948 22.2902 12.6495 21.5 14.5833 21.5H20.4167Z" fill="#F2F2F2"/>
</g>
<defs>
<clipPath id="clip0_52_90">
<rect width="35" height="36" fill="white" transform="translate(0 0.5)"/>
</clipPath>
</defs>
</svg>
